<?xml version="1.0" encoding="UTF-8"?>
<svg width="626px" height="800px" viewBox="0 0 626 800" version="1.1" xmlns="http://www.w3.org/2000/svg" xmlns:xlink="http://www.w3.org/1999/xlink">
    <!-- Generator: Sketch 41.2 (35397) - http://www.bohemiancoding.com/sketch -->
    <title>Artboard</title>
    <desc>Created with Sketch.</desc>
    <defs></defs>
    <g id="Page-1" stroke="none" stroke-width="1" fill="none" fill-rule="evenodd">
        <g id="Artboard">
            <g id="shutterstock_528271372">
                <path d="M625.215,113.555 L625.215,487.716 C625.215,659.904 485.12,800 313.071,800 C140.882,800 0.785,659.904 0.785,487.716 L0.785,113.555 L168.231,113.555 L168.231,487.716 C168.231,567.531 233.116,632.556 313.071,632.556 C392.886,632.556 457.77,567.531 457.77,487.716 L457.77,113.555 L625.215,113.555" id="Fill-1" fill="#3D515D"></path>
                <polygon id="Fill-2" fill="#8CD1E9" points="0.785 235.143 168.231 235.143 168.231 113.555 0.785 113.555"></polygon>
                <polygon id="Fill-3" fill="#E36A57" points="457.77 235.143 625.215 235.143 625.215 113.555 457.77 113.555"></polygon>
                <polygon id="Fill-4" fill="#30424F" points="0.785 259.785 168.231 259.785 168.231 235.143 0.785 235.143"></polygon>
                <polygon id="Fill-5" fill="#30424F" points="457.77 259.785 625.215 259.785 625.215 235.143 457.77 235.143"></polygon>
                <path d="M130.047,94.733 L130.047,94.733 C125.107,94.733 121.102,90.728 121.102,85.788 L121.102,25.611 C121.102,20.671 125.107,16.666 130.047,16.666 C134.987,16.666 138.992,20.671 138.992,25.611 L138.992,85.788 C138.992,90.728 134.987,94.733 130.047,94.733" id="Fill-6" fill="#8CD1E9"></path>
                <path d="M84.508,78.066 L84.508,78.066 C79.568,78.066 75.563,74.062 75.563,69.122 L75.563,8.945 C75.563,4.005 79.568,0 84.508,0 C89.448,0 93.453,4.005 93.453,8.945 L93.453,69.122 C93.453,74.062 89.448,78.066 84.508,78.066" id="Fill-7" fill="#8CD1E9"></path>
                <path d="M38.969,94.733 L38.969,94.733 C34.029,94.733 30.025,90.728 30.025,85.788 L30.025,25.611 C30.025,20.671 34.029,16.666 38.969,16.666 C43.909,16.666 47.914,20.671 47.914,25.611 L47.914,85.788 C47.914,90.728 43.909,94.733 38.969,94.733" id="Fill-8" fill="#8CD1E9"></path>
                <path d="M587.032,94.733 L587.032,94.733 C582.091,94.733 578.086,90.728 578.086,85.788 L578.086,25.611 C578.086,20.671 582.091,16.666 587.032,16.666 C591.972,16.666 595.977,20.671 595.977,25.611 L595.977,85.788 C595.977,90.728 591.972,94.733 587.032,94.733" id="Fill-9" fill="#FACD5F"></path>
                <path d="M541.493,78.066 L541.493,78.066 C536.552,78.066 532.547,74.062 532.547,69.122 L532.547,8.945 C532.547,4.005 536.552,0 541.493,0 C546.433,0 550.438,4.005 550.438,8.945 L550.438,69.122 C550.438,74.062 546.433,78.066 541.493,78.066" id="Fill-10" fill="#FACD5F"></path>
                <path d="M495.954,94.733 L495.954,94.733 C491.013,94.733 487.008,90.728 487.008,85.788 L487.008,25.611 C487.008,20.671 491.013,16.666 495.954,16.666 C500.894,16.666 504.9,20.671 504.9,25.611 L504.9,85.788 C504.9,90.728 500.894,94.733 495.954,94.733" id="Fill-11" fill="#FACD5F"></path>
            </g>
        </g>
    </g>
</svg>