<?xml version="1.0" encoding="UTF-8"?>
<svg width="482px" height="90px" viewBox="0 0 482 90" version="1.1" xmlns="http://www.w3.org/2000/svg" xmlns:xlink="http://www.w3.org/1999/xlink">
    <!-- Generator: Sketch 41.2 (35397) - http://www.bohemiancoding.com/sketch -->
    <title>Artboard Copy</title>
    <desc>Created with Sketch.</desc>
    <defs></defs>
    <g id="Page-1" stroke="none" stroke-width="1" fill="none" fill-rule="evenodd">
        <g id="Artboard-Copy">
            <g id="Group-2-Copy">
                <g id="magnetizer" transform="translate(205.500000, 48.000000) rotate(-180.000000) translate(-205.500000, -48.000000) translate(182.000000, 17.000000)">
                    <g id="Page-1" transform="translate(0.000000, 0.000000)">
                        <g id="Artboard">
                            <g id="shutterstock_528271372">
                                <path d="M46.5328791,11.3746812 L46.5328791,38.969055 C46.5328791,51.66792 36.1060281,62 23.3009365,62 C10.4854251,62 0.0584251979,51.66792 0.0584251979,38.969055 L0.0584251979,11.3746812 L12.5209293,11.3746812 L12.5209293,38.969055 C12.5209293,44.8554113 17.3501254,49.651005 23.3009365,49.651005 C29.2413278,49.651005 34.0704495,44.8554113 34.0704495,38.969055 L34.0704495,11.3746812 L46.5328791,11.3746812" id="Fill-1" fill="#3D515D"></path>
                                <polygon id="Fill-2" fill="#8CD1E9" points="0.0584251979 20.3417962 12.5209293 20.3417962 12.5209293 11.3746812 0.0584251979 11.3746812"></polygon>
                                <polygon id="Fill-3" fill="#E36A57" points="34.0704495 20.3417962 46.5328791 20.3417962 46.5328791 11.3746812 34.0704495 11.3746812"></polygon>
                                <polygon id="Fill-4" fill="#30424F" points="0.0584251979 22.1591437 12.5209293 22.1591437 12.5209293 20.3417962 0.0584251979 20.3417962"></polygon>
                                <polygon id="Fill-5" fill="#30424F" points="34.0704495 22.1591438 46.5328791 22.1591438 46.5328791 20.3417963 34.0704495 20.3417963"></polygon>
                                <g id="Group" transform="translate(35.000000, 0.000000)" fill="#FACD5F">
                                    <path d="M10.2547105,8.98271839 L10.2547105,8.98271839 C9.76438539,8.98271839 9.36694519,8.60295857 9.36694519,8.13454071 L9.36694519,2.42847161 C9.36694519,1.96005375 9.76438539,1.58029393 10.2547105,1.58029393 C10.7449364,1.58029393 11.1423766,1.96005375 11.1423766,2.42847161 L11.1423766,8.13454071 C11.1423766,8.60295857 10.7449364,8.98271839 10.2547105,8.98271839" id="Fill-9"></path>
                                    <path d="M5.73560206,7.40232964 L5.73560206,7.40232964 C5.24527696,7.40232964 4.84783676,7.02266464 4.84783676,6.55424679 L4.84783676,0.848177679 C4.84783676,0.379759821 5.24527696,0 5.73560206,0 C6.22582792,0 6.62326812,0.379759821 6.62326812,0.848177679 L6.62326812,6.55424679 C6.62326812,7.02266464 6.22582792,7.40232964 5.73560206,7.40232964" id="Fill-10"></path>
                                    <path d="M1.21649362,8.98271839 L1.21649362,8.98271839 C0.726168523,8.98271839 0.328728323,8.60295857 0.328728323,8.13454071 L0.328728323,2.42847161 C0.328728323,1.96005375 0.726168523,1.58029393 1.21649362,1.58029393 C1.70671949,1.58029393 2.10425892,1.96005375 2.10425892,2.42847161 L2.10425892,8.13454071 C2.10425892,8.60295857 1.70671949,8.98271839 1.21649362,8.98271839" id="Fill-11"></path>
                                </g>
                                <g id="Group-Copy" transform="translate(0.000000, 0.000000)" fill="#8CD1E9">
                                    <path d="M10.2547105,8.98271839 L10.2547105,8.98271839 C9.76438539,8.98271839 9.36694519,8.60295857 9.36694519,8.13454071 L9.36694519,2.42847161 C9.36694519,1.96005375 9.76438539,1.58029393 10.2547105,1.58029393 C10.7449364,1.58029393 11.1423766,1.96005375 11.1423766,2.42847161 L11.1423766,8.13454071 C11.1423766,8.60295857 10.7449364,8.98271839 10.2547105,8.98271839" id="Fill-9"></path>
                                    <path d="M5.73560206,7.40232964 L5.73560206,7.40232964 C5.24527696,7.40232964 4.84783676,7.02266464 4.84783676,6.55424679 L4.84783676,0.848177679 C4.84783676,0.379759821 5.24527696,0 5.73560206,0 C6.22582792,0 6.62326812,0.379759821 6.62326812,0.848177679 L6.62326812,6.55424679 C6.62326812,7.02266464 6.22582792,7.40232964 5.73560206,7.40232964" id="Fill-10"></path>
                                    <path d="M1.21649362,8.98271839 L1.21649362,8.98271839 C0.726168523,8.98271839 0.328728323,8.60295857 0.328728323,8.13454071 L0.328728323,2.42847161 C0.328728323,1.96005375 0.726168523,1.58029393 1.21649362,1.58029393 C1.70671949,1.58029393 2.10425892,1.96005375 2.10425892,2.42847161 L2.10425892,8.13454071 C2.10425892,8.60295857 1.70671949,8.98271839 1.21649362,8.98271839" id="Fill-11"></path>
                                </g>
                            </g>
                        </g>
                    </g>
                </g>
                <path d="M51.321,17.609 C55.1490191,17.609 58.3169875,18.1534946 60.825,19.2425 C63.3330125,20.3315054 65.3129927,21.8494903 66.765,23.7965 C68.2170073,25.7435097 69.239997,28.0534866 69.834,30.7265 C70.428003,33.3995134 70.725,36.2869845 70.725,39.389 L70.725,64.337 C70.725,65.5250059 70.1970053,66.5974952 69.141,67.5545 C68.0849947,68.5115048 66.6330092,68.99 64.785,68.99 C63.1349918,68.99 61.7985051,68.5115048 60.7755,67.5545 C59.7524949,66.5974952 59.241,65.5250059 59.241,64.337 L59.241,38.993 C59.241,35.3629818 58.5645068,32.6900086 57.2115,30.974 C55.8584932,29.2579914 53.5650162,28.4 50.331,28.4 C44.5889713,28.4 41.718,31.9309647 41.718,38.993 L41.718,64.733 L41.52,65.624 L41.322,65.921 C41.2559997,66.0530007 41.2065002,66.1684995 41.1735,66.2675 C41.1404998,66.3665005 41.0580007,66.4819993 40.926,66.614 C40.4639977,67.2740033 39.837004,67.8184979 39.045,68.2475 C38.252996,68.6765021 37.3290053,68.9239997 36.273,68.99 L35.778,68.99 C34.2599924,68.99 33.006005,68.6270036 32.016,67.901 C31.0259951,67.1749964 30.3990013,66.2840053 30.135,65.228 L30.036,65.03 L30.036,38.993 C30.036,31.9309647 27.1650287,28.4 21.423,28.4 C18.1229835,28.4 15.8130066,29.2579914 14.493,30.974 C13.1729934,32.6900086 12.513,35.3629818 12.513,38.993 L12.513,64.337 C12.513,65.5250059 12.0015051,66.5974952 10.9785,67.5545 C9.95549489,68.5115048 8.58600858,68.99 6.87,68.99 C5.08799109,68.99 3.65250545,68.5115048 2.5635,67.5545 C1.47449456,66.5974952 0.93,65.5250059 0.93,64.337 L0.93,39.389 C0.93,36.2869845 1.22699703,33.3995134 1.821,30.7265 C2.41500297,28.0534866 3.45449258,25.7435097 4.9395,23.7965 C6.42450743,21.8494903 8.42098746,20.3315054 10.929,19.2425 C13.4370125,18.1534946 16.6049809,17.609 20.433,17.609 C24.2610191,17.609 27.4124876,18.3184929 29.8875,19.7375 C32.3625124,21.1565071 34.3259927,23.0209885 35.778,25.331 C37.2960076,23.0209885 39.2759878,21.1565071 41.718,19.7375 C44.1600122,18.3184929 47.3609802,17.609 51.321,17.609 Z M117.009,69.485 C115.358992,69.485 114.022505,69.0065048 112.9995,68.0495 C111.976495,67.0924952 111.465,66.0200059 111.465,64.832 L111.465,63.248 L110.574,62.951 C109.979997,63.8090043 109.336503,64.6009964 108.6435,65.327 C107.950496,66.0530036 107.109005,66.6964972 106.119,67.2575 C105.128995,67.8185028 103.957507,68.2474985 102.6045,68.5445 C101.251493,68.8415015 99.5850097,68.99 97.6049998,68.99 C94.436984,68.99 91.6650117,68.4125058 89.2889998,67.2575 C86.9129879,66.1024942 84.9660074,64.6010092 83.4479998,62.753 C81.9299922,60.9049908 80.7915036,58.7930119 80.0324998,56.417 C79.273496,54.0409881 78.8939998,51.5990125 78.8939998,49.091 L78.8939998,40.379 C78.8939998,37.6069861 79.3889949,34.8680135 80.3789998,32.162 C81.3690048,29.4559865 82.8209902,27.0140109 84.7349998,24.836 C86.6490094,22.6579891 89.0579853,20.8925068 91.9619998,19.5395 C94.8660143,18.1864932 98.2649803,17.51 102.159,17.51 C105.789018,17.51 108.923987,18.004995 111.564,18.995 C114.204013,19.9850049 116.365491,21.3544913 118.0485,23.1035 C119.731508,24.8525087 120.968996,26.9149881 121.761,29.291 C122.553004,31.6670119 122.949,34.2739858 122.949,37.112 L122.949,64.832 C122.949,66.0200059 122.421005,67.0924952 121.365,68.0495 C120.308995,69.0065048 118.857009,69.485 117.009,69.485 Z M111.465,37.31 C111.465,34.0099835 110.656508,31.6835068 109.0395,30.3305 C107.422492,28.9774932 105.129015,28.301 102.159,28.301 C100.442991,28.301 98.8920067,28.6144969 97.5059998,29.2415 C96.1199929,29.8685031 94.9320048,30.7264946 93.9419998,31.8155 C92.9519949,32.9045054 92.1765026,34.1419931 91.6154998,35.528 C91.054497,36.9140069 90.7739998,38.3989921 90.7739998,39.983 L90.7739998,49.487 C90.7739998,51.8630119 91.6649909,53.9089914 93.4469998,55.625 C95.2290087,57.3410086 97.4399866,58.199 100.08,58.199 C101.532007,58.199 102.934493,57.9515025 104.2875,57.4565 C105.640507,56.9614975 106.844995,56.2355048 107.901,55.2785 C108.957005,54.3214952 109.814997,53.1170073 110.475,51.665 C111.135003,50.2129927 111.465,48.5300096 111.465,46.616 L111.465,37.31 Z M174.777,68 C174.777,71.6960185 174.183006,74.8804866 172.995,77.5535 C171.806994,80.2265134 170.20651,82.4374913 168.1935,84.1865 C166.18049,85.9355087 163.854013,87.2389957 161.214,88.097 C158.573986,88.9550043 155.802014,89.384 152.898,89.384 C150.389987,89.384 148.14601,89.2520013 146.166,88.988 C144.18599,88.7239987 142.767004,88.4270017 141.909,88.097 C139.730989,86.7109931 138.642,85.0280099 138.642,83.048 C138.642,81.5959927 139.087495,80.4410043 139.9785,79.583 C140.869504,78.7249957 142.23899,78.296 144.087,78.296 C144.813003,78.296 145.852493,78.4279987 147.2055,78.692 C148.558506,78.9560013 150.455987,79.088 152.898,79.088 C154.416007,79.088 155.801993,78.9395015 157.056,78.6425 C158.310006,78.3454985 159.398995,77.7845041 160.323,76.9595 C161.247004,76.1344959 161.972997,75.0125071 162.501,73.5935 C163.029002,72.1744929 163.293,70.3100116 163.293,68 L163.293,63.149 L162.897,62.951 C161.840994,64.7330089 160.30651,66.1849944 158.2935,67.307 C156.28049,68.4290056 153.624016,68.99 150.324,68.99 C144.119969,68.99 139.335016,67.0595193 135.969,63.1985 C132.602983,59.3374807 130.92,54.0410337 130.92,47.309 L130.92,41.468 C130.92,38.3659845 131.398495,35.3630145 132.3555,32.459 C133.312504,29.5549855 134.74799,26.9975111 136.662,24.7865 C138.576009,22.5754889 140.968485,20.7935068 143.8395,19.4405 C146.710514,18.0874932 150.09298,17.411 153.987,17.411 C157.617018,17.411 160.751986,17.8894952 163.392,18.8465 C166.032013,19.8035048 168.193491,21.1234916 169.8765,22.8065 C171.559508,24.4895084 172.796996,26.4859884 173.589,28.796 C174.381004,31.1060115 174.777,33.5809868 174.777,36.221 L174.777,68 Z M152.898,58.199 C155.670013,58.199 158.06249,57.3905081 160.0755,55.7735 C162.08851,54.1564919 163.160999,51.6320172 163.293,48.2 L163.293,35.825 C163.293,33.2509871 162.484508,31.3370063 160.8675,30.083 C159.250492,28.8289937 156.957014,28.202 153.987,28.202 C152.270991,28.202 150.720007,28.5484965 149.334,29.2415 C147.947993,29.9345035 146.760005,30.8584942 145.77,32.0135 C144.779995,33.1685058 144.004502,34.5214922 143.4435,36.0725 C142.882497,37.6235078 142.602,39.2899911 142.602,41.072 L142.602,47.705 C142.602,54.701035 146.033965,58.199 152.898,58.199 Z" id="mag" fill="#3D515D"></path>
                <path d="M278.916,38.607 C278.916,41.7090155 278.322006,43.8869937 277.134,45.141 C275.945994,46.3950063 273.966014,47.022 271.194,47.022 L247.731,47.022 L247.731,49.596 C247.731,52.7640158 248.70449,55.3049904 250.6515,57.219 C252.59851,59.1330096 255.353982,60.09 258.918,60.09 C260.700009,60.09 262.333493,59.9745012 263.8185,59.7435 C265.303507,59.5124988 266.474996,59.199002 267.333,58.803 C268.257005,58.3409977 269.147996,57.8790023 270.006,57.417 C270.864004,56.9549977 271.655996,56.724 272.382,56.724 C273.702007,56.724 274.724996,57.119996 275.451,57.912 C276.177004,58.704004 276.573,59.7269937 276.639,60.981 C276.639,62.0370053 276.177005,63.0929947 275.253,64.149 C274.328995,65.2050053 273.075008,66.1619957 271.491,67.02 C269.906992,67.8780043 268.042511,68.5874972 265.8975,69.1485 C263.752489,69.7095028 261.459012,69.99 259.017,69.99 C255.650983,69.99 252.582014,69.4620053 249.81,68.406 C247.037986,67.3499947 244.64551,65.9310089 242.6325,64.149 C240.61949,62.3669911 239.052006,60.271512 237.93,57.8625 C236.807994,55.453488 236.247,52.8960135 236.247,50.19 L236.247,39.696 C236.247,36.7919855 236.791495,34.0530129 237.8805,31.479 C238.969505,28.9049871 240.47099,26.6610096 242.385,24.747 C244.29901,22.8329904 246.575987,21.3150056 249.216,20.193 C251.856013,19.0709944 254.759984,18.51 257.928,18.51 C261.690019,18.51 264.890987,19.1204939 267.531,20.3415 C270.171013,21.5625061 272.332492,23.1464903 274.0155,25.0935 C275.698508,27.0405097 276.935996,29.2019881 277.728,31.578 C278.520004,33.9540119 278.916,36.2969884 278.916,38.607 Z M257.829,28.113 C254.858985,28.113 252.499509,29.0534906 250.7505,30.9345 C249.001491,32.8155094 247.995001,35.3069845 247.731,38.409 L267.927,38.409 L267.927,36.924 C267.927,34.2179865 266.986509,32.0730079 265.1055,30.489 C263.224491,28.9049921 260.799015,28.113 257.829,28.113 Z M291.751,19.5 L291.751,9.303 C291.751,8.11499406 292.278995,7.04250478 293.335,6.0855 C294.391005,5.12849521 295.842991,4.65 297.691,4.65 C299.407009,4.65 300.776495,5.12849521 301.7995,6.0855 C302.822505,7.04250478 303.334,8.11499406 303.334,9.303 L303.334,19.5 L310.66,19.5 C311.782006,19.5 312.771996,19.9124959 313.63,20.7375 C314.488004,21.5625041 314.917,22.6349934 314.917,23.955 C314.917,25.4070073 314.488004,26.5454959 313.63,27.3705 C312.771996,28.1955041 311.782006,28.608 310.66,28.608 L303.334,28.608 L303.334,52.566 C303.334,55.3380139 303.696996,57.2189951 304.423,58.209 C305.149004,59.199005 306.204993,59.694 307.591,59.694 C308.911007,59.694 310.032995,59.5785012 310.957,59.3475 C311.881005,59.1164988 312.936994,59.001 314.125,59.001 C315.643008,59.001 316.748497,59.4134959 317.4415,60.2385 C318.134503,61.0635041 318.481,62.2019927 318.481,63.654 C318.481,64.9080063 318.151003,65.930996 317.491,66.723 C316.830997,67.515004 315.956505,68.1584975 314.8675,68.6535 C313.778495,69.1485025 312.524507,69.494999 311.1055,69.693 C309.686493,69.891001 308.185008,69.99 306.601,69.99 C301.452974,69.99 297.691012,68.6535134 295.315,65.9805 C292.938988,63.3074866 291.751,58.7040327 291.751,52.17 L291.751,28.608 L287.791,28.608 C286.668994,28.608 285.679004,28.1955041 284.821,27.3705 C283.962996,26.5454959 283.534,25.4070073 283.534,23.955 C283.534,22.6349934 283.962996,21.5625041 284.821,20.7375 C285.679004,19.9124959 286.668994,19.5 287.791,19.5 L291.751,19.5 Z M326.26,23.163 C326.26,21.9749941 326.804495,20.9025048 327.8935,19.9455 C328.982505,18.9884952 330.417991,18.51 332.2,18.51 C333.916009,18.51 335.285495,18.9884952 336.3085,19.9455 C337.331505,20.9025048 337.843,21.9749941 337.843,23.163 L337.843,65.337 C337.843,66.5250059 337.331505,67.5974952 336.3085,68.5545 C335.285495,69.5115048 333.916009,69.99 332.2,69.99 C330.417991,69.99 328.982505,69.5115048 327.8935,68.5545 C326.804495,67.5974952 326.26,66.5250059 326.26,65.337 L326.26,23.163 Z M326.26,5.343 C326.26,4.15499406 326.804495,3.08250478 327.8935,2.1255 C328.982505,1.16849521 330.417991,0.69 332.2,0.69 C333.916009,0.69 335.285495,1.16849521 336.3085,2.1255 C337.331505,3.08250478 337.843,4.15499406 337.843,5.343 L337.843,7.719 C337.843,8.90700594 337.331505,9.97949522 336.3085,10.9365 C335.285495,11.8935048 333.916009,12.372 332.2,12.372 C330.417991,12.372 328.982505,11.8935048 327.8935,10.9365 C326.804495,9.97949522 326.26,8.90700594 326.26,7.719 L326.26,5.343 Z M374.954,29.301 L354.461,29.301 C353.206994,29.301 352.068505,28.905004 351.0455,28.113 C350.022495,27.320996 349.511,26.1330079 349.511,24.549 C349.511,22.8329914 350.022495,21.5625041 351.0455,20.7375 C352.068505,19.9124959 353.206994,19.5 354.461,19.5 L385.844,19.5 C387.098006,19.5 388.219995,19.9124959 389.21,20.7375 C390.200005,21.5625041 390.695,22.8329914 390.695,24.549 C390.695,25.9350069 390.266004,27.0569957 389.408,27.915 L389.507,28.014 L365.45,59.199 L388.022,59.199 C389.276006,59.199 390.397995,59.6114959 391.388,60.4365 C392.378005,61.2615041 392.873,62.5319914 392.873,64.248 C392.873,65.8320079 392.378005,67.019996 391.388,67.812 C390.397995,68.604004 389.276006,69 388.022,69 L354.461,69 C353.206994,69 352.068505,68.604004 351.0455,67.812 C350.022495,67.019996 349.511,65.8320079 349.511,64.248 C349.511,62.6639921 349.972995,61.4100046 350.897,60.486 L374.954,29.301 Z M440.736,38.607 C440.736,41.7090155 440.142006,43.8869937 438.954,45.141 C437.765994,46.3950063 435.786014,47.022 433.014,47.022 L409.551,47.022 L409.551,49.596 C409.551,52.7640158 410.52449,55.3049904 412.4715,57.219 C414.41851,59.1330096 417.173982,60.09 420.738,60.09 C422.520009,60.09 424.153493,59.9745012 425.6385,59.7435 C427.123507,59.5124988 428.294996,59.199002 429.153,58.803 C430.077005,58.3409977 430.967996,57.8790023 431.826,57.417 C432.684004,56.9549977 433.475996,56.724 434.202,56.724 C435.522007,56.724 436.544996,57.119996 437.271,57.912 C437.997004,58.704004 438.393,59.7269937 438.459,60.981 C438.459,62.0370053 437.997005,63.0929947 437.073,64.149 C436.148995,65.2050053 434.895008,66.1619957 433.311,67.02 C431.726992,67.8780043 429.862511,68.5874972 427.7175,69.1485 C425.572489,69.7095028 423.279012,69.99 420.837,69.99 C417.470983,69.99 414.402014,69.4620053 411.63,68.406 C408.857986,67.3499947 406.46551,65.9310089 404.4525,64.149 C402.43949,62.3669911 400.872006,60.271512 399.75,57.8625 C398.627994,55.453488 398.067,52.8960135 398.067,50.19 L398.067,39.696 C398.067,36.7919855 398.611495,34.0530129 399.7005,31.479 C400.789505,28.9049871 402.29099,26.6610096 404.205,24.747 C406.11901,22.8329904 408.395987,21.3150056 411.036,20.193 C413.676013,19.0709944 416.579984,18.51 419.748,18.51 C423.510019,18.51 426.710987,19.1204939 429.351,20.3415 C431.991013,21.5625061 434.152492,23.1464903 435.8355,25.0935 C437.518508,27.0405097 438.755996,29.2019881 439.548,31.578 C440.340004,33.9540119 440.736,36.2969884 440.736,38.607 Z M419.649,28.113 C416.678985,28.113 414.319509,29.0534906 412.5705,30.9345 C410.821491,32.8155094 409.815001,35.3069845 409.551,38.409 L429.747,38.409 L429.747,36.924 C429.747,34.2179865 428.806509,32.0730079 426.9255,30.489 C425.044491,28.9049921 422.619015,28.113 419.649,28.113 Z M471.197,29.301 C469.744993,29.301 468.425006,29.399999 467.237,29.598 C466.048994,29.796001 465.042504,30.191997 464.2175,30.786 C463.392496,31.380003 462.765502,32.2379944 462.3365,33.36 C461.907498,34.4820056 461.693,35.9339911 461.693,37.716 L461.693,65.337 C461.693,66.5250059 461.181505,67.5974952 460.1585,68.5545 C459.135495,69.5115048 457.766009,69.99 456.05,69.99 C454.267991,69.99 452.832505,69.5115048 451.7435,68.5545 C450.654495,67.5974952 450.11,66.5250059 450.11,65.337 L450.11,38.112 C450.11,31.8419686 451.792983,27.007517 455.159,23.6085 C458.525017,20.209483 463.870963,18.51 471.197,18.51 C474.563017,18.51 477.120491,19.1699934 478.8695,20.49 C480.618509,21.8100066 481.295002,23.6579881 480.899,26.034 C480.700999,27.2220059 480.272003,28.0634975 479.612,28.5585 C478.951997,29.0535025 478.160005,29.3504995 477.236,29.4495 C476.311995,29.5485005 475.322005,29.5485005 474.266,29.4495 C473.209995,29.3504995 472.187005,29.301 471.197,29.301 Z" id="etizer" fill="#3D515D"></path>
            </g>
        </g>
    </g>
</svg>