<?xml version="1.0" encoding="UTF-8"?>
<svg width="605px" height="804px" viewBox="0 0 605 804" version="1.1" xmlns="http://www.w3.org/2000/svg" xmlns:xlink="http://www.w3.org/1999/xlink">
    <!-- Generator: Sketch 41.2 (35397) - http://www.bohemiancoding.com/sketch -->
    <title>Artboard Copy</title>
    <desc>Created with Sketch.</desc>
    <defs></defs>
    <g id="Page-1" stroke="none" stroke-width="1" fill="none" fill-rule="evenodd">
        <g id="Artboard-Copy">
            <g id="magnetizer" transform="translate(302.500000, 402.500000) rotate(-180.000000) translate(-302.500000, -402.500000) translate(1.000000, 1.000000)">
                <g id="Page-1" transform="translate(0.000000, 0.000000)">
                    <g id="Artboard">
                        <g id="shutterstock_528271372">
                            <path d="M602.352656,147.320468 L602.352656,504.712116 C602.352656,669.182899 467.380534,803 301.622879,803 C135.730344,803 0.75629477,669.182899 0.75629477,504.712116 L0.75629477,147.320468 L162.079268,147.320468 L162.079268,504.712116 C162.079268,580.949923 224.591607,643.060597 301.622879,643.060597 C378.51927,643.060597 441.030646,580.949923 441.030646,504.712116 L441.030646,147.320468 L602.352656,147.320468" id="Fill-1" fill="#3D515D"></path>
                            <polygon id="Fill-2" fill="#8CD1E9" points="0.75629477 263.459071 162.079268 263.459071 162.079268 147.320468 0.75629477 147.320468"></polygon>
                            <polygon id="Fill-3" fill="#E36A57" points="441.030646 263.459071 602.352656 263.459071 602.352656 147.320468 441.030646 147.320468"></polygon>
                            <polygon id="Fill-4" fill="#30424F" points="0.75629477 286.996652 162.079268 286.996652 162.079268 263.459071 0.75629477 263.459071"></polygon>
                            <polygon id="Fill-5" fill="#30424F" points="441.030646 286.996652 602.352656 286.996652 602.352656 263.459071 441.030646 263.459071"></polygon>
                            <g id="Group" transform="translate(457.282229, -0.000000)" fill="#FACD5F">
                                <path d="M128.524958,116.340691 L128.524958,116.340691 C122.177863,116.340691 117.033131,111.422189 117.033131,105.355422 L117.033131,31.4526242 C117.033131,25.3858574 122.177863,20.4673552 128.524958,20.4673552 C134.870769,20.4673552 140.0155,25.3858574 140.0155,31.4526242 L140.0155,105.355422 C140.0155,111.422189 134.870769,116.340691 128.524958,116.340691" id="Fill-9"></path>
                                <path d="M70.0266012,95.8721081 L70.0266012,95.8721081 C63.6795058,95.8721081 58.5347745,90.954834 58.5347745,84.8880672 L58.5347745,10.985269 C58.5347745,4.9185022 63.6795058,0 70.0266012,0 C76.3724121,0 81.5171434,4.9185022 81.5171434,10.985269 L81.5171434,84.8880672 C81.5171434,90.954834 76.3724121,95.8721081 70.0266012,95.8721081" id="Fill-10"></path>
                                <path d="M11.5282445,116.340691 L11.5282445,116.340691 C5.18114899,116.340691 0.0364176871,111.422189 0.0364176871,105.355422 L0.0364176871,31.4526242 C0.0364176871,25.3858574 5.18114899,20.4673552 11.5282445,20.4673552 C17.8740554,20.4673552 23.0200712,25.3858574 23.0200712,31.4526242 L23.0200712,105.355422 C23.0200712,111.422189 17.8740554,116.340691 11.5282445,116.340691" id="Fill-11"></path>
                            </g>
                            <g id="Group-Copy" transform="translate(4.218861, 0.000000)" fill="#8CD1E9">
                                <path d="M128.524958,116.340691 L128.524958,116.340691 C122.177863,116.340691 117.033131,111.422189 117.033131,105.355422 L117.033131,31.4526242 C117.033131,25.3858574 122.177863,20.4673552 128.524958,20.4673552 C134.870769,20.4673552 140.0155,25.3858574 140.0155,31.4526242 L140.0155,105.355422 C140.0155,111.422189 134.870769,116.340691 128.524958,116.340691" id="Fill-9"></path>
                                <path d="M70.0266012,95.8721081 L70.0266012,95.8721081 C63.6795058,95.8721081 58.5347745,90.954834 58.5347745,84.8880672 L58.5347745,10.985269 C58.5347745,4.9185022 63.6795058,0 70.0266012,0 C76.3724121,0 81.5171434,4.9185022 81.5171434,10.985269 L81.5171434,84.8880672 C81.5171434,90.954834 76.3724121,95.8721081 70.0266012,95.8721081" id="Fill-10"></path>
                                <path d="M11.5282445,116.340691 L11.5282445,116.340691 C5.18114899,116.340691 0.0364176871,111.422189 0.0364176871,105.355422 L0.0364176871,31.4526242 C0.0364176871,25.3858574 5.18114899,20.4673552 11.5282445,20.4673552 C17.8740554,20.4673552 23.0200712,25.3858574 23.0200712,31.4526242 L23.0200712,105.355422 C23.0200712,111.422189 17.8740554,116.340691 11.5282445,116.340691" id="Fill-11"></path>
                            </g>
                        </g>
                    </g>
                </g>
            </g>
        </g>
    </g>
</svg>