<?xml version="1.0" encoding="UTF-8"?>
<svg width="482px" height="90px" viewBox="0 0 482 90" version="1.1" xmlns="http://www.w3.org/2000/svg" xmlns:xlink="http://www.w3.org/1999/xlink">
    <!-- Generator: Sketch 41.2 (35397) - http://www.bohemiancoding.com/sketch -->
    <title>Artboard Copy</title>
    <desc>Created with Sketch.</desc>
    <defs></defs>
    <g id="Page-1" stroke="none" stroke-width="1" fill="none" fill-rule="evenodd">
        <g id="Artboard-Copy">
            <g id="Group-2-Copy" transform="translate(-6.000000, -26.000000)">
                <g id="magnetizer" transform="translate(211.500000, 74.000000) rotate(-180.000000) translate(-211.500000, -74.000000) translate(188.000000, 43.000000)">
                    <g id="Page-1" transform="translate(0.000000, 0.000000)">
                        <g id="Artboard">
                            <g id="shutterstock_528271372">
                                <path d="M46.5328791,11.3746812 L46.5328791,38.969055 C46.5328791,51.66792 36.1060281,62 23.3009365,62 C10.4854251,62 0.0584251979,51.66792 0.0584251979,38.969055 L0.0584251979,11.3746812 L12.5209293,11.3746812 L12.5209293,38.969055 C12.5209293,44.8554113 17.3501254,49.651005 23.3009365,49.651005 C29.2413278,49.651005 34.0704495,44.8554113 34.0704495,38.969055 L34.0704495,11.3746812 L46.5328791,11.3746812" id="Fill-1" fill="#3D515D"></path>
                                <polygon id="Fill-2" fill="#8CD1E9" points="0.0584251979 20.3417962 12.5209293 20.3417962 12.5209293 11.3746812 0.0584251979 11.3746812"></polygon>
                                <polygon id="Fill-3" fill="#E36A57" points="34.0704495 20.3417962 46.5328791 20.3417962 46.5328791 11.3746812 34.0704495 11.3746812"></polygon>
                                <polygon id="Fill-4" fill="#30424F" points="0.0584251979 22.1591437 12.5209293 22.1591437 12.5209293 20.3417962 0.0584251979 20.3417962"></polygon>
                                <polygon id="Fill-5" fill="#30424F" points="34.0704495 22.1591438 46.5328791 22.1591438 46.5328791 20.3417963 34.0704495 20.3417963"></polygon>
                                <g id="Group" transform="translate(35.000000, 0.000000)" fill="#FACD5F">
                                    <path d="M10.2547105,8.98271839 L10.2547105,8.98271839 C9.76438539,8.98271839 9.36694519,8.60295857 9.36694519,8.13454071 L9.36694519,2.42847161 C9.36694519,1.96005375 9.76438539,1.58029393 10.2547105,1.58029393 C10.7449364,1.58029393 11.1423766,1.96005375 11.1423766,2.42847161 L11.1423766,8.13454071 C11.1423766,8.60295857 10.7449364,8.98271839 10.2547105,8.98271839" id="Fill-9"></path>
                                    <path d="M5.73560206,7.40232964 L5.73560206,7.40232964 C5.24527696,7.40232964 4.84783676,7.02266464 4.84783676,6.55424679 L4.84783676,0.848177679 C4.84783676,0.379759821 5.24527696,0 5.73560206,0 C6.22582792,0 6.62326812,0.379759821 6.62326812,0.848177679 L6.62326812,6.55424679 C6.62326812,7.02266464 6.22582792,7.40232964 5.73560206,7.40232964" id="Fill-10"></path>
                                    <path d="M1.21649362,8.98271839 L1.21649362,8.98271839 C0.726168523,8.98271839 0.328728323,8.60295857 0.328728323,8.13454071 L0.328728323,2.42847161 C0.328728323,1.96005375 0.726168523,1.58029393 1.21649362,1.58029393 C1.70671949,1.58029393 2.10425892,1.96005375 2.10425892,2.42847161 L2.10425892,8.13454071 C2.10425892,8.60295857 1.70671949,8.98271839 1.21649362,8.98271839" id="Fill-11"></path>
                                </g>
                                <g id="Group-Copy" transform="translate(0.000000, 0.000000)" fill="#8CD1E9">
                                    <path d="M10.2547105,8.98271839 L10.2547105,8.98271839 C9.76438539,8.98271839 9.36694519,8.60295857 9.36694519,8.13454071 L9.36694519,2.42847161 C9.36694519,1.96005375 9.76438539,1.58029393 10.2547105,1.58029393 C10.7449364,1.58029393 11.1423766,1.96005375 11.1423766,2.42847161 L11.1423766,8.13454071 C11.1423766,8.60295857 10.7449364,8.98271839 10.2547105,8.98271839" id="Fill-9"></path>
                                    <path d="M5.73560206,7.40232964 L5.73560206,7.40232964 C5.24527696,7.40232964 4.84783676,7.02266464 4.84783676,6.55424679 L4.84783676,0.848177679 C4.84783676,0.379759821 5.24527696,0 5.73560206,0 C6.22582792,0 6.62326812,0.379759821 6.62326812,0.848177679 L6.62326812,6.55424679 C6.62326812,7.02266464 6.22582792,7.40232964 5.73560206,7.40232964" id="Fill-10"></path>
                                    <path d="M1.21649362,8.98271839 L1.21649362,8.98271839 C0.726168523,8.98271839 0.328728323,8.60295857 0.328728323,8.13454071 L0.328728323,2.42847161 C0.328728323,1.96005375 0.726168523,1.58029393 1.21649362,1.58029393 C1.70671949,1.58029393 2.10425892,1.96005375 2.10425892,2.42847161 L2.10425892,8.13454071 C2.10425892,8.60295857 1.70671949,8.98271839 1.21649362,8.98271839" id="Fill-11"></path>
                                </g>
                            </g>
                        </g>
                    </g>
                </g>
                <text id="mag" font-family="UbuntuTitling-Bold, Ubuntu Titling" font-size="99" font-weight="bold" letter-spacing="-4.80000019" fill="#3D515D">
                    <tspan x="0" y="94">ma</tspan>
                    <tspan x="131.475" y="94">g</tspan>
                </text>
                <text id="etizer" font-family="UbuntuTitling-Bold, Ubuntu Titling" font-size="99" font-weight="bold" letter-spacing="-3.5" fill="#3D515D">
                    <tspan x="237" y="95">e</tspan>
                    <tspan x="287.554" y="95" letter-spacing="-4.2">t</tspan>
                    <tspan x="324.34" y="95" letter-spacing="-1.4">i</tspan>
                    <tspan x="350.363" y="95" letter-spacing="-5.3">z</tspan>
                    <tspan x="398.82" y="95" letter-spacing="-3.1">e</tspan>
                    <tspan x="448.883" y="95">r</tspan>
                </text>
            </g>
        </g>
    </g>
</svg>